<?xml version="1.0" encoding="utf-8"?>
<!-- Generator: Adobe Illustrator 18.1.1, SVG Export Plug-In . SVG Version: 6.00 Build 0)  -->
<svg version="1.1" xmlns="http://www.w3.org/2000/svg" xmlns:xlink="http://www.w3.org/1999/xlink" x="0px" y="0px" width="1096px"
	 height="780px" viewBox="0 0 1096 780" enable-background="new 0 0 1096 780" xml:space="preserve">
<g id="Layer_3">
	<rect fill="#FFFFFF" width="1096" height="780"/>
	<g>
		<path fill="#FF424A" d="M247.6,237.6H64.8c-7.9,0-14.3-6.4-14.3-14.3V40.5c0-7.9,6.4-14.3,14.3-14.3h182.8
			c7.9,0,14.3,6.4,14.3,14.3v182.8C261.8,231.2,255.4,237.6,247.6,237.6z"/>
		<g>
			<defs>
				<path id="SVGID_1_" d="M247.6,237.6H64.8c-7.9,0-14.3-6.4-14.3-14.3V40.5c0-7.9,6.4-14.3,14.3-14.3h182.8
					c7.9,0,14.3,6.4,14.3,14.3v182.8C261.8,231.2,255.4,237.6,247.6,237.6z"/>
			</defs>
			<clipPath id="SVGID_2_">
				<use xlink:href="#SVGID_1_"  overflow="visible"/>
			</clipPath>
			<g opacity="0.76" clip-path="url(#SVGID_2_)">
				<path fill="#FFFFFF" d="M255.8,214.1c-1.1-26.1-13.5-51.9-51.7-49.7c-15.6,0.9-31.3,0.1-46.9,0.1c-0.4,0-0.3,0-1.4,0
					s-0.6,0-0.9,0c-15.6,0-31.3,0.8-46.9-0.1c-38.1-2.2-50.6,23.7-51.7,49.8c-1.1,26.3-0.6,52.6-0.4,78.9
					c0.1,12.9,9.3,22.2,20.9,22.3c10.8,0.1,18.6-7.9,19-21.3c0.7-21.6,0.4-43.3,0.6-64.9c0-3,0.3-6,0.8-8.9c0.2-1,1.7-1.8,2.6-2.6
					c0.7,1,1.8,1.9,1.9,2.9c0.3,2.6,0.2,5.3,0.2,8c0,33.6-0.1,67.3,0,100.9c0,15.1,2.8,17.9,18.1,17.9c11.9,0,23,0,35.8,0
					c12.8,0,24.1,0,36,0c15.2,0,18.2-2.8,18.2-17.9c0-33.6,0-67.3,0-100.9c0-2.7,0-5.3,0.3-8c0.1-1,1.3-1.9,1.9-2.9
					c0.9,0.9,2.4,1.6,2.6,2.6c0.6,2.9,0.8,5.9,0.9,8.9c0.2,21.6-0.1,43.3,0.6,64.9c0.4,13.4,8.3,21.5,19,21.3
					c11.6-0.1,20.8-9.4,20.9-22.3C256.4,266.7,256.9,240.3,255.8,214.1z"/>
				<path fill="#FFFFFF" d="M155.8,154.7c29.1-0.2,51.7-23.9,51.5-52.3c-0.2-27.8-23.2-50.5-51-50.6c-0.1,0-0.4,0-0.4,0
					s-0.2,0-0.3,0c-27.8,0.1-50.8,22.8-50.9,50.6C104.4,130.8,126.6,154.4,155.8,154.7z"/>
			</g>
		</g>
		<path fill="#E6E6E6" d="M247.6,478.9H64.8c-7.9,0-14.3-6.4-14.3-14.3V281.9c0-7.9,6.4-14.3,14.3-14.3h182.8
			c7.9,0,14.3,6.4,14.3,14.3v182.8C261.8,472.5,255.4,478.9,247.6,478.9z"/>
		<g>
			<defs>
				<path id="SVGID_3_" d="M247.6,478.9H64.8c-7.9,0-14.3-6.4-14.3-14.3V281.9c0-7.9,6.4-14.3,14.3-14.3h182.8
					c7.9,0,14.3,6.4,14.3,14.3v182.8C261.8,472.5,255.4,478.9,247.6,478.9z"/>
			</defs>
			<clipPath id="SVGID_4_">
				<use xlink:href="#SVGID_3_"  overflow="visible"/>
			</clipPath>
			<g clip-path="url(#SVGID_4_)">
				<path fill="#3AD5EC" d="M255.8,455.4c-1.1-26.1-13.5-51.9-51.7-49.7c-15.6,0.9-31.3,0.1-46.9,0.1c-0.4,0-0.3,0-1.4,0
					s-0.6,0-0.9,0c-15.6,0-31.3,0.8-46.9-0.1c-38.1-2.2-50.6,23.7-51.7,49.8c-1.1,26.3-0.6,52.6-0.4,78.9
					c0.1,12.9,9.3,22.2,20.9,22.3c10.8,0.1,18.6-7.9,19-21.3c0.7-21.6,0.4-43.3,0.6-64.9c0-3,0.3-6,0.8-8.9c0.2-1,1.7-1.8,2.6-2.6
					c0.7,1,1.8,1.9,1.9,2.9c0.3,2.6,0.2,5.3,0.2,8c0,33.6-0.1,67.3,0,100.9c0,15.1,2.8,17.9,18.1,17.9c11.9,0,23,0,35.8,0
					c12.8,0,24.1,0,36,0c15.2,0,18.2-2.8,18.2-17.9c0-33.6,0-67.3,0-100.9c0-2.7,0-5.3,0.3-8c0.1-1,1.3-1.9,1.9-2.9
					c0.9,0.9,2.4,1.6,2.6,2.6c0.6,2.9,0.8,5.9,0.9,8.9c0.2,21.6-0.1,43.3,0.6,64.9c0.4,13.4,8.3,21.5,19,21.3
					c11.6-0.1,20.8-9.4,20.9-22.3C256.4,508,256.9,481.7,255.8,455.4z"/>
				<path fill="#3AD5EC" d="M155.8,396c29.1-0.2,51.7-23.9,51.5-52.3c-0.2-27.8-23.2-50.5-51-50.6c-0.1,0-0.4,0-0.4,0s-0.2,0-0.3,0
					c-27.8,0.1-50.8,22.8-50.9,50.6C104.4,372.1,126.6,395.8,155.8,396z"/>
			</g>
		</g>
		<path fill="#FF424A" d="M247.6,720.3H64.8c-7.9,0-14.3-6.4-14.3-14.3V523.2c0-7.9,6.4-14.3,14.3-14.3h182.8
			c7.9,0,14.3,6.4,14.3,14.3V706C261.8,713.9,255.4,720.3,247.6,720.3z"/>
		<g>
			<defs>
				<path id="SVGID_5_" d="M247.6,720.3H64.8c-7.9,0-14.3-6.4-14.3-14.3V523.2c0-7.9,6.4-14.3,14.3-14.3h182.8
					c7.9,0,14.3,6.4,14.3,14.3V706C261.8,713.9,255.4,720.3,247.6,720.3z"/>
			</defs>
			<clipPath id="SVGID_6_">
				<use xlink:href="#SVGID_5_"  overflow="visible"/>
			</clipPath>
			<g clip-path="url(#SVGID_6_)">
				<path fill="#923C31" d="M255.8,696.8c-1.1-26.1-13.5-51.9-51.7-49.7c-15.6,0.9-31.3,0.1-46.9,0.1c-0.4,0-0.3,0-1.4,0
					s-0.6,0-0.9,0c-15.6,0-31.3,0.8-46.9-0.1c-38.1-2.2-50.6,23.7-51.7,49.8c-1.1,26.3-0.6,52.6-0.4,78.9
					c0.1,12.9,9.3,22.2,20.9,22.3c10.8,0.1,18.6-7.9,19-21.3c0.7-21.6,0.4-43.3,0.6-64.9c0-3,0.3-6,0.8-8.9c0.2-1,1.7-1.8,2.6-2.6
					c0.7,1,1.8,1.9,1.9,2.9c0.3,2.6,0.2,5.3,0.2,8c0,33.6-0.1,67.3,0,100.9c0,15.1,2.8,17.9,18.1,17.9c11.9,0,23,0,35.8,0
					c12.8,0,24.1,0,36,0c15.2,0,18.2-2.8,18.2-17.9c0-33.6,0-67.3,0-100.9c0-2.7,0-5.3,0.3-8c0.1-1,1.3-1.9,1.9-2.9
					c0.9,0.9,2.4,1.6,2.6,2.6c0.6,2.9,0.8,5.9,0.9,8.9c0.2,21.6-0.1,43.3,0.6,64.9c0.4,13.4,8.3,21.5,19,21.3
					c11.6-0.1,20.8-9.4,20.9-22.3C256.4,749.4,256.9,723,255.8,696.8z"/>
				<path fill="#923C31" d="M155.8,637.3c29.1-0.2,51.7-23.9,51.5-52.3c-0.2-27.8-23.2-50.5-51-50.6c-0.1,0-0.4,0-0.4,0
					s-0.2,0-0.3,0c-27.8,0.1-50.8,22.8-50.9,50.6C104.4,613.5,126.6,637.1,155.8,637.3z"/>
			</g>
		</g>
		<path fill="#F17C00" d="M508.8,237.6H326c-7.9,0-14.3-6.4-14.3-14.3V40.5c0-7.9,6.4-14.3,14.3-14.3h182.8
			c7.9,0,14.3,6.4,14.3,14.3v182.8C523,231.2,516.7,237.6,508.8,237.6z"/>
		<g>
			<defs>
				<path id="SVGID_7_" d="M508.8,237.6H326c-7.9,0-14.3-6.4-14.3-14.3V40.5c0-7.9,6.4-14.3,14.3-14.3h182.8
					c7.9,0,14.3,6.4,14.3,14.3v182.8C523,231.2,516.7,237.6,508.8,237.6z"/>
			</defs>
			<clipPath id="SVGID_8_">
				<use xlink:href="#SVGID_7_"  overflow="visible"/>
			</clipPath>
			<g opacity="0.76" clip-path="url(#SVGID_8_)">
				<path fill="#FFFFFF" d="M517.1,214.1c-1.1-26.1-13.5-51.9-51.7-49.7c-15.6,0.9-31.3,0.1-46.9,0.1c-0.4,0-0.3,0-1.4,0
					c-1.2,0-0.6,0-0.9,0c-15.6,0-31.3,0.8-46.9-0.1c-38.1-2.2-50.6,23.7-51.7,49.8c-1.1,26.3-0.6,52.6-0.4,78.9
					c0.1,12.9,9.3,22.2,20.9,22.3c10.8,0.1,18.6-7.9,19-21.3c0.7-21.6,0.4-43.3,0.6-64.9c0-3,0.3-6,0.8-8.9c0.2-1,1.7-1.8,2.6-2.6
					c0.7,1,1.8,1.9,1.9,2.9c0.3,2.6,0.2,5.3,0.2,8c0,33.6-0.1,67.3,0,100.9c0,15.1,2.8,17.9,18.1,17.9c11.9,0,23,0,35.8,0
					c12.8,0,24.1,0,36,0c15.2,0,18.2-2.8,18.2-17.9c0-33.6,0-67.3,0-100.9c0-2.7,0-5.3,0.3-8c0.1-1,1.3-1.9,1.9-2.9
					c0.9,0.9,2.4,1.6,2.6,2.6c0.6,2.9,0.8,5.9,0.9,8.9c0.2,21.6-0.1,43.3,0.6,64.9c0.4,13.4,8.3,21.5,19,21.3
					c11.6-0.1,20.8-9.4,20.9-22.3C517.7,266.7,518.2,240.3,517.1,214.1z"/>
				<path fill="#FFFFFF" d="M417,154.7c29.1-0.2,51.7-23.9,51.5-52.3c-0.2-27.8-23.2-50.5-51-50.6c-0.1,0-0.4,0-0.4,0s-0.2,0-0.3,0
					c-27.8,0.1-50.8,22.8-50.9,50.6C365.6,130.8,387.9,154.4,417,154.7z"/>
			</g>
		</g>
		<path fill="#E6E6E6" d="M508.8,478.9H326c-7.9,0-14.3-6.4-14.3-14.3V281.9c0-7.9,6.4-14.3,14.3-14.3h182.8
			c7.9,0,14.3,6.4,14.3,14.3v182.8C523,472.5,516.7,478.9,508.8,478.9z"/>
		<g>
			<defs>
				<path id="SVGID_9_" d="M508.8,478.9H326c-7.9,0-14.3-6.4-14.3-14.3V281.9c0-7.9,6.4-14.3,14.3-14.3h182.8
					c7.9,0,14.3,6.4,14.3,14.3v182.8C523,472.5,516.7,478.9,508.8,478.9z"/>
			</defs>
			<clipPath id="SVGID_10_">
				<use xlink:href="#SVGID_9_"  overflow="visible"/>
			</clipPath>
			<g clip-path="url(#SVGID_10_)">
				<path fill="#8A6BDA" d="M517.1,455.4c-1.1-26.1-13.5-51.9-51.7-49.7c-15.6,0.9-31.3,0.1-46.9,0.1c-0.4,0-0.3,0-1.4,0
					c-1.2,0-0.6,0-0.9,0c-15.6,0-31.3,0.8-46.9-0.1c-38.1-2.2-50.6,23.7-51.7,49.8c-1.1,26.3-0.6,52.6-0.4,78.9
					c0.1,12.9,9.3,22.2,20.9,22.3c10.8,0.1,18.6-7.9,19-21.3c0.7-21.6,0.4-43.3,0.6-64.9c0-3,0.3-6,0.8-8.9c0.2-1,1.7-1.8,2.6-2.6
					c0.7,1,1.8,1.9,1.9,2.9c0.3,2.6,0.2,5.3,0.2,8c0,33.6-0.1,67.3,0,100.9c0,15.1,2.8,17.9,18.1,17.9c11.9,0,23,0,35.8,0
					c12.8,0,24.1,0,36,0c15.2,0,18.2-2.8,18.2-17.9c0-33.6,0-67.3,0-100.9c0-2.7,0-5.3,0.3-8c0.1-1,1.3-1.9,1.9-2.9
					c0.9,0.9,2.4,1.6,2.6,2.6c0.6,2.9,0.8,5.9,0.9,8.9c0.2,21.6-0.1,43.3,0.6,64.9c0.4,13.4,8.3,21.5,19,21.3
					c11.6-0.1,20.8-9.4,20.9-22.3C517.7,508,518.2,481.7,517.1,455.4z"/>
				<path fill="#8A6BDA" d="M417,396c29.1-0.2,51.7-23.9,51.5-52.3c-0.2-27.8-23.2-50.5-51-50.6c-0.1,0-0.4,0-0.4,0s-0.2,0-0.3,0
					c-27.8,0.1-50.8,22.8-50.9,50.6C365.6,372.1,387.9,395.8,417,396z"/>
			</g>
		</g>
		<path fill="#F17C00" d="M508.8,720.3H326c-7.9,0-14.3-6.4-14.3-14.3V523.2c0-7.9,6.4-14.3,14.3-14.3h182.8
			c7.9,0,14.3,6.4,14.3,14.3V706C523,713.9,516.7,720.3,508.8,720.3z"/>
		<g>
			<defs>
				<path id="SVGID_11_" d="M508.8,720.3H326c-7.9,0-14.3-6.4-14.3-14.3V523.2c0-7.9,6.4-14.3,14.3-14.3h182.8
					c7.9,0,14.3,6.4,14.3,14.3V706C523,713.9,516.7,720.3,508.8,720.3z"/>
			</defs>
			<clipPath id="SVGID_12_">
				<use xlink:href="#SVGID_11_"  overflow="visible"/>
			</clipPath>
			<g clip-path="url(#SVGID_12_)">
				<path fill="#CB4625" d="M517.1,696.8c-1.1-26.1-13.5-51.9-51.7-49.7c-15.6,0.9-31.3,0.1-46.9,0.1c-0.4,0-0.3,0-1.4,0
					c-1.2,0-0.6,0-0.9,0c-15.6,0-31.3,0.8-46.9-0.1c-38.1-2.2-50.6,23.7-51.7,49.8c-1.1,26.3-0.6,52.6-0.4,78.9
					c0.1,12.9,9.3,22.2,20.9,22.3c10.8,0.1,18.6-7.9,19-21.3c0.7-21.6,0.4-43.3,0.6-64.9c0-3,0.3-6,0.8-8.9c0.2-1,1.7-1.8,2.6-2.6
					c0.7,1,1.8,1.9,1.9,2.9c0.3,2.6,0.2,5.3,0.2,8c0,33.6-0.1,67.3,0,100.9c0,15.1,2.8,17.9,18.1,17.9c11.9,0,23,0,35.8,0
					c12.8,0,24.1,0,36,0c15.2,0,18.2-2.8,18.2-17.9c0-33.6,0-67.3,0-100.9c0-2.7,0-5.3,0.3-8c0.1-1,1.3-1.9,1.9-2.9
					c0.9,0.9,2.4,1.6,2.6,2.6c0.6,2.9,0.8,5.9,0.9,8.9c0.2,21.6-0.1,43.3,0.6,64.9c0.4,13.4,8.3,21.5,19,21.3
					c11.6-0.1,20.8-9.4,20.9-22.3C517.7,749.4,518.2,723,517.1,696.8z"/>
				<path fill="#CB4625" d="M417,637.3c29.1-0.2,51.7-23.9,51.5-52.3c-0.2-27.8-23.2-50.5-51-50.6c-0.1,0-0.4,0-0.4,0s-0.2,0-0.3,0
					c-27.8,0.1-50.8,22.8-50.9,50.6C365.6,613.5,387.9,637.1,417,637.3z"/>
			</g>
		</g>
		<path fill="#FFD400" d="M770,237.6H587.2c-7.9,0-14.3-6.4-14.3-14.3V40.5c0-7.9,6.4-14.3,14.3-14.3H770c7.9,0,14.3,6.4,14.3,14.3
			v182.8C784.3,231.2,777.9,237.6,770,237.6z"/>
		<g>
			<defs>
				<path id="SVGID_13_" d="M770,237.6H587.2c-7.9,0-14.3-6.4-14.3-14.3V40.5c0-7.9,6.4-14.3,14.3-14.3H770
					c7.9,0,14.3,6.4,14.3,14.3v182.8C784.3,231.2,777.9,237.6,770,237.6z"/>
			</defs>
			<clipPath id="SVGID_14_">
				<use xlink:href="#SVGID_13_"  overflow="visible"/>
			</clipPath>
			<g opacity="0.76" clip-path="url(#SVGID_14_)">
				<path fill="#FFFFFF" d="M778.3,214.1c-1.1-26.1-13.5-51.9-51.7-49.7c-15.6,0.9-31.3,0.1-46.9,0.1c-0.4,0-0.3,0-1.4,0
					c-1.2,0-0.6,0-0.9,0c-15.6,0-31.3,0.8-46.9-0.1c-38.1-2.2-50.6,23.7-51.7,49.8c-1.1,26.3-0.6,52.6-0.4,78.9
					c0.1,12.9,9.3,22.2,20.9,22.3c10.8,0.1,18.6-7.9,19-21.3c0.7-21.6,0.4-43.3,0.6-64.9c0-3,0.3-6,0.8-8.9c0.2-1,1.7-1.8,2.6-2.6
					c0.7,1,1.8,1.9,1.9,2.9c0.3,2.6,0.2,5.3,0.2,8c0,33.6-0.1,67.3,0,100.9c0,15.1,2.8,17.9,18.1,17.9c11.9,0,23,0,35.8,0
					c12.8,0,24.1,0,36,0c15.2,0,18.2-2.8,18.2-17.9c0-33.6,0-67.3,0-100.9c0-2.7,0-5.3,0.3-8c0.1-1,1.3-1.9,1.9-2.9
					c0.9,0.9,2.4,1.6,2.6,2.6c0.6,2.9,0.8,5.9,0.9,8.9c0.2,21.6-0.1,43.3,0.6,64.9c0.4,13.4,8.3,21.5,19,21.3
					c11.6-0.1,20.8-9.4,20.9-22.3C778.9,266.7,779.4,240.3,778.3,214.1z"/>
				<path fill="#FFFFFF" d="M678.2,154.7c29.1-0.2,51.7-23.9,51.5-52.3c-0.2-27.8-23.2-50.5-51-50.6c-0.1,0-0.4,0-0.4,0
					s-0.2,0-0.3,0c-27.8,0.1-50.8,22.8-50.9,50.6C626.8,130.8,649.1,154.4,678.2,154.7z"/>
			</g>
		</g>
		<path fill="#E6E6E6" d="M770,478.9H587.2c-7.9,0-14.3-6.4-14.3-14.3V281.9c0-7.9,6.4-14.3,14.3-14.3H770c7.9,0,14.3,6.4,14.3,14.3
			v182.8C784.3,472.5,777.9,478.9,770,478.9z"/>
		<g>
			<defs>
				<path id="SVGID_15_" d="M770,478.9H587.2c-7.9,0-14.3-6.4-14.3-14.3V281.9c0-7.9,6.4-14.3,14.3-14.3H770
					c7.9,0,14.3,6.4,14.3,14.3v182.8C784.3,472.5,777.9,478.9,770,478.9z"/>
			</defs>
			<clipPath id="SVGID_16_">
				<use xlink:href="#SVGID_15_"  overflow="visible"/>
			</clipPath>
			<g clip-path="url(#SVGID_16_)">
				<path fill="#FF5AAF" d="M778.3,455.4c-1.1-26.1-13.5-51.9-51.7-49.7c-15.6,0.9-31.3,0.1-46.9,0.1c-0.4,0-0.3,0-1.4,0
					c-1.2,0-0.6,0-0.9,0c-15.6,0-31.3,0.8-46.9-0.1c-38.1-2.2-50.6,23.7-51.7,49.8c-1.1,26.3-0.6,52.6-0.4,78.9
					c0.1,12.9,9.3,22.2,20.9,22.3c10.8,0.1,18.6-7.9,19-21.3c0.7-21.6,0.4-43.3,0.6-64.9c0-3,0.3-6,0.8-8.9c0.2-1,1.7-1.8,2.6-2.6
					c0.7,1,1.8,1.9,1.9,2.9c0.3,2.6,0.2,5.3,0.2,8c0,33.6-0.1,67.3,0,100.9c0,15.1,2.8,17.9,18.1,17.9c11.9,0,23,0,35.8,0
					c12.8,0,24.1,0,36,0c15.2,0,18.2-2.8,18.2-17.9c0-33.6,0-67.3,0-100.9c0-2.7,0-5.3,0.3-8c0.1-1,1.3-1.9,1.9-2.9
					c0.9,0.9,2.4,1.6,2.6,2.6c0.6,2.9,0.8,5.9,0.9,8.9c0.2,21.6-0.1,43.3,0.6,64.9c0.4,13.4,8.3,21.5,19,21.3
					c11.6-0.1,20.8-9.4,20.9-22.3C778.9,508,779.4,481.7,778.3,455.4z"/>
				<path fill="#FF5AAF" d="M678.2,396c29.1-0.2,51.7-23.9,51.5-52.3c-0.2-27.8-23.2-50.5-51-50.6c-0.1,0-0.4,0-0.4,0s-0.2,0-0.3,0
					c-27.8,0.1-50.8,22.8-50.9,50.6C626.8,372.1,649.1,395.8,678.2,396z"/>
			</g>
		</g>
		<path fill="#FFD400" d="M770,720.3H587.2c-7.9,0-14.3-6.4-14.3-14.3V523.2c0-7.9,6.4-14.3,14.3-14.3H770c7.9,0,14.3,6.4,14.3,14.3
			V706C784.3,713.9,777.9,720.3,770,720.3z"/>
		<g>
			<defs>
				<path id="SVGID_17_" d="M770,720.3H587.2c-7.9,0-14.3-6.4-14.3-14.3V523.2c0-7.9,6.4-14.3,14.3-14.3H770
					c7.9,0,14.3,6.4,14.3,14.3V706C784.3,713.9,777.9,720.3,770,720.3z"/>
			</defs>
			<clipPath id="SVGID_18_">
				<use xlink:href="#SVGID_17_"  overflow="visible"/>
			</clipPath>
			<g clip-path="url(#SVGID_18_)">
				<path fill="#FF9F0B" d="M778.3,696.8c-1.1-26.1-13.5-51.9-51.7-49.7c-15.6,0.9-31.3,0.1-46.9,0.1c-0.4,0-0.3,0-1.4,0
					c-1.2,0-0.6,0-0.9,0c-15.6,0-31.3,0.8-46.9-0.1c-38.1-2.2-50.6,23.7-51.7,49.8c-1.1,26.3-0.6,52.6-0.4,78.9
					c0.1,12.9,9.3,22.2,20.9,22.3c10.8,0.1,18.6-7.9,19-21.3c0.7-21.6,0.4-43.3,0.6-64.9c0-3,0.3-6,0.8-8.9c0.2-1,1.7-1.8,2.6-2.6
					c0.7,1,1.8,1.9,1.9,2.9c0.3,2.6,0.2,5.3,0.2,8c0,33.6-0.1,67.3,0,100.9c0,15.1,2.8,17.9,18.1,17.9c11.9,0,23,0,35.8,0
					c12.8,0,24.1,0,36,0c15.2,0,18.2-2.8,18.2-17.9c0-33.6,0-67.3,0-100.9c0-2.7,0-5.3,0.3-8c0.1-1,1.3-1.9,1.9-2.9
					c0.9,0.9,2.4,1.6,2.6,2.6c0.6,2.9,0.8,5.9,0.9,8.9c0.2,21.6-0.1,43.3,0.6,64.9c0.4,13.4,8.3,21.5,19,21.3
					c11.6-0.1,20.8-9.4,20.9-22.3C778.9,749.4,779.4,723,778.3,696.8z"/>
				<path fill="#FF9F0B" d="M678.2,637.3c29.1-0.2,51.7-23.9,51.5-52.3c-0.2-27.8-23.2-50.5-51-50.6c-0.1,0-0.4,0-0.4,0
					s-0.2,0-0.3,0c-27.8,0.1-50.8,22.8-50.9,50.6C626.8,613.5,649.1,637.1,678.2,637.3z"/>
			</g>
		</g>
		<path fill="#B3D100" d="M1031.2,237.6H848.4c-7.9,0-14.3-6.4-14.3-14.3V40.5c0-7.9,6.4-14.3,14.3-14.3h182.8
			c7.9,0,14.3,6.4,14.3,14.3v182.8C1045.5,231.2,1039.1,237.6,1031.2,237.6z"/>
		<g>
			<defs>
				<path id="SVGID_19_" d="M1031.2,237.6H848.4c-7.9,0-14.3-6.4-14.3-14.3V40.5c0-7.9,6.4-14.3,14.3-14.3h182.8
					c7.9,0,14.3,6.4,14.3,14.3v182.8C1045.5,231.2,1039.1,237.6,1031.2,237.6z"/>
			</defs>
			<clipPath id="SVGID_20_">
				<use xlink:href="#SVGID_19_"  overflow="visible"/>
			</clipPath>
			<g opacity="0.76" clip-path="url(#SVGID_20_)">
				<path fill="#FFFFFF" d="M1039.5,214.1c-1.1-26.1-13.5-51.9-51.7-49.7c-15.6,0.9-31.3,0.1-46.9,0.1c-0.4,0-0.3,0-1.4,0
					s-0.6,0-0.9,0c-15.6,0-31.3,0.8-46.9-0.1c-38.1-2.2-50.6,23.7-51.7,49.8c-1.1,26.3-0.6,52.6-0.4,78.9
					c0.1,12.9,9.3,22.2,20.9,22.3c10.8,0.1,18.6-7.9,19-21.3c0.7-21.6,0.4-43.3,0.6-64.9c0-3,0.3-6,0.8-8.9c0.2-1,1.7-1.8,2.6-2.6
					c0.7,1,1.8,1.9,1.9,2.9c0.3,2.6,0.2,5.3,0.2,8c0,33.6-0.1,67.3,0,100.9c0,15.1,2.8,17.9,18.1,17.9c11.9,0,23,0,35.8,0
					c12.8,0,24.1,0,36,0c15.2,0,18.2-2.8,18.2-17.9c0-33.6,0-67.3,0-100.9c0-2.7,0-5.3,0.3-8c0.1-1,1.3-1.9,1.9-2.9
					c0.9,0.9,2.4,1.6,2.6,2.6c0.6,2.9,0.8,5.9,0.9,8.9c0.2,21.6-0.1,43.3,0.6,64.9c0.4,13.4,8.3,21.5,19,21.3
					c11.6-0.1,20.8-9.4,20.9-22.3C1040.1,266.7,1040.6,240.3,1039.5,214.1z"/>
				<path fill="#FFFFFF" d="M939.5,154.7c29.1-0.2,51.7-23.9,51.5-52.3c-0.2-27.8-23.2-50.5-51-50.6c-0.1,0-0.4,0-0.4,0
					s-0.2,0-0.3,0c-27.8,0.1-50.8,22.8-50.9,50.6C888.1,130.8,910.3,154.4,939.5,154.7z"/>
			</g>
		</g>
		<path fill="#E6E6E6" d="M1031.2,478.9H848.4c-7.9,0-14.3-6.4-14.3-14.3V281.9c0-7.9,6.4-14.3,14.3-14.3h182.8
			c7.9,0,14.3,6.4,14.3,14.3v182.8C1045.5,472.5,1039.1,478.9,1031.2,478.9z"/>
		<g>
			<defs>
				<path id="SVGID_21_" d="M1031.2,478.9H848.4c-7.9,0-14.3-6.4-14.3-14.3V281.9c0-7.9,6.4-14.3,14.3-14.3h182.8
					c7.9,0,14.3,6.4,14.3,14.3v182.8C1045.5,472.5,1039.1,478.9,1031.2,478.9z"/>
			</defs>
			<clipPath id="SVGID_22_">
				<use xlink:href="#SVGID_21_"  overflow="visible"/>
			</clipPath>
			<g clip-path="url(#SVGID_22_)">
				<path fill="#666666" d="M1039.5,455.4c-1.1-26.1-13.5-51.9-51.7-49.7c-15.6,0.9-31.3,0.1-46.9,0.1c-0.4,0-0.3,0-1.4,0
					s-0.6,0-0.9,0c-15.6,0-31.3,0.8-46.9-0.1c-38.1-2.2-50.6,23.7-51.7,49.8c-1.1,26.3-0.6,52.6-0.4,78.9
					c0.1,12.9,9.3,22.2,20.9,22.3c10.8,0.1,18.6-7.9,19-21.3c0.7-21.6,0.4-43.3,0.6-64.9c0-3,0.3-6,0.8-8.9c0.2-1,1.7-1.8,2.6-2.6
					c0.7,1,1.8,1.9,1.9,2.9c0.3,2.6,0.2,5.3,0.2,8c0,33.6-0.1,67.3,0,100.9c0,15.1,2.8,17.9,18.1,17.9c11.9,0,23,0,35.8,0
					c12.8,0,24.1,0,36,0c15.2,0,18.2-2.8,18.2-17.9c0-33.6,0-67.3,0-100.9c0-2.7,0-5.3,0.3-8c0.1-1,1.3-1.9,1.9-2.9
					c0.9,0.9,2.4,1.6,2.6,2.6c0.6,2.9,0.8,5.9,0.9,8.9c0.2,21.6-0.1,43.3,0.6,64.9c0.4,13.4,8.3,21.5,19,21.3
					c11.6-0.1,20.8-9.4,20.9-22.3C1040.1,508,1040.6,481.7,1039.5,455.4z"/>
				<path fill="#666666" d="M939.5,396c29.1-0.2,51.7-23.9,51.5-52.3c-0.2-27.8-23.2-50.5-51-50.6c-0.1,0-0.4,0-0.4,0s-0.2,0-0.3,0
					c-27.8,0.1-50.8,22.8-50.9,50.6C888.1,372.1,910.3,395.8,939.5,396z"/>
			</g>
		</g>
		<path fill="#B3D100" d="M1031.2,720.3H848.4c-7.9,0-14.3-6.4-14.3-14.3V523.2c0-7.9,6.4-14.3,14.3-14.3h182.8
			c7.9,0,14.3,6.4,14.3,14.3V706C1045.5,713.9,1039.1,720.3,1031.2,720.3z"/>
		<g>
			<defs>
				<path id="SVGID_23_" d="M1031.2,720.3H848.4c-7.9,0-14.3-6.4-14.3-14.3V523.2c0-7.9,6.4-14.3,14.3-14.3h182.8
					c7.9,0,14.3,6.4,14.3,14.3V706C1045.5,713.9,1039.1,720.3,1031.2,720.3z"/>
			</defs>
			<clipPath id="SVGID_24_">
				<use xlink:href="#SVGID_23_"  overflow="visible"/>
			</clipPath>
			<g clip-path="url(#SVGID_24_)">
				<path fill="#788D00" d="M1039.5,696.8c-1.1-26.1-13.5-51.9-51.7-49.7c-15.6,0.9-31.3,0.1-46.9,0.1c-0.4,0-0.3,0-1.4,0
					s-0.6,0-0.9,0c-15.6,0-31.3,0.8-46.9-0.1c-38.1-2.2-50.6,23.7-51.7,49.8c-1.1,26.3-0.6,52.6-0.4,78.9
					c0.1,12.9,9.3,22.2,20.9,22.3c10.8,0.1,18.6-7.9,19-21.3c0.7-21.6,0.4-43.3,0.6-64.9c0-3,0.3-6,0.8-8.9c0.2-1,1.7-1.8,2.6-2.6
					c0.7,1,1.8,1.9,1.9,2.9c0.3,2.6,0.2,5.3,0.2,8c0,33.6-0.1,67.3,0,100.9c0,15.1,2.8,17.9,18.1,17.9c11.9,0,23,0,35.8,0
					c12.8,0,24.1,0,36,0c15.2,0,18.2-2.8,18.2-17.9c0-33.6,0-67.3,0-100.9c0-2.7,0-5.3,0.3-8c0.1-1,1.3-1.9,1.9-2.9
					c0.9,0.9,2.4,1.6,2.6,2.6c0.6,2.9,0.8,5.9,0.9,8.9c0.2,21.6-0.1,43.3,0.6,64.9c0.4,13.4,8.3,21.5,19,21.3
					c11.6-0.1,20.8-9.4,20.9-22.3C1040.1,749.4,1040.6,723,1039.5,696.8z"/>
				<path fill="#788D00" d="M939.5,637.3c29.1-0.2,51.7-23.9,51.5-52.3c-0.2-27.8-23.2-50.5-51-50.6c-0.1,0-0.4,0-0.4,0
					s-0.2,0-0.3,0c-27.8,0.1-50.8,22.8-50.9,50.6C888.1,613.5,910.3,637.1,939.5,637.3z"/>
			</g>
		</g>
	</g>
</g>
<g id="Layer_2">
	<g id="Designed_by_Vecteezy">
		<g>
			<g>
				<g>
					<path fill="#666666" d="M570.5,739.7c0.5,0,1,0.5,1,0.5l-8.9,19c-1,0-3.3,0.1-3.9,0.1c-0.5,0-1-0.5-1-0.5l-3-19
						c1.8,0,4.2-0.1,4.8-0.1c0.5,0,1,0.5,1,0.5l0.9,9.3c0.1,0.8,0.1,1.9,0.1,3.1c0.3-1.3,0.6-2.5,1-3.3l3.7-9.4
						C567.9,739.9,569.9,739.7,570.5,739.7L570.5,739.7z"/>
				</g>
				<g>
					<path fill="#666666" d="M579.7,749.1c0,2.1-1.2,3.4-4,4l-3,0.6c0.2,1.3,1.1,1.9,2.4,1.9c1.7,0,2.8-1.3,2.8-1.3s0.8,0.5,0.8,1.4
						c0,1.7-2.6,3.6-5.7,3.6c-3.1,0-5.2-2-5.2-5.3c0-3.8,2.7-9.1,7.6-9.1C578.1,745.1,579.7,746.7,579.7,749.1L579.7,749.1z
						 M574.6,751.1c0.6-0.2,0.8-0.7,0.8-1.3c0-0.6-0.2-1.4-0.9-1.4c-1.2,0-1.7,1.9-1.9,3.4L574.6,751.1z"/>
				</g>
				<g>
					<path fill="#666666" d="M587.9,745.1c2.4,0,4.3,1.3,4.3,3c0,2.1-2.6,2.9-2.6,2.9s-0.7-2.3-2.5-2.3c-1.2,0-1.8,1.2-1.8,3.7
						c0,2.3,0.6,3.3,2.1,3.3c1.5,0,2.5-1,2.5-1s0.9,0.5,0.9,1.4c0,1.7-2.5,3.4-5.5,3.4c-3.2,0-5.1-2-5.1-5.3
						C580.1,750.3,582.9,745.1,587.9,745.1L587.9,745.1z"/>
				</g>
				<g>
					<path fill="#666666" d="M599.6,742c0.6,0,1,0.5,1,0.5l-0.5,2.9h3.1l-0.7,2.2c-0.2,0.7-0.6,1.1-1.3,1.1h-1.6l-0.9,5.7
						c-0.1,0.9,0.1,1.3,0.7,1.3c0.6,0,1.1-0.3,1.1-0.3s0.9,0.5,0.9,1.4c0,1.4-2,2.8-4.5,2.8c-2.6,0-3.7-1.6-3.3-4.5l1-6.3H593
						l0.7-2.3c0.2-0.6,0.7-1,1.3-1h0.8l1-2.7C598,742.4,599.1,742,599.6,742L599.6,742z"/>
				</g>
				<g>
					<path fill="#666666" d="M614.5,749.1c0,2.1-1.2,3.4-4,4l-3,0.6c0.2,1.3,1.1,1.9,2.4,1.9c1.7,0,2.8-1.3,2.8-1.3s0.9,0.5,0.9,1.4
						c0,1.7-2.6,3.6-5.7,3.6c-3.1,0-5.2-2-5.2-5.3c0-3.8,2.7-9.1,7.6-9.1C612.9,745.1,614.5,746.7,614.5,749.1L614.5,749.1z
						 M609.4,751.1c0.6-0.2,0.8-0.7,0.8-1.3c0-0.6-0.2-1.4-0.9-1.4c-1.2,0-1.7,1.9-1.9,3.4L609.4,751.1z"/>
				</g>
				<g>
					<path fill="#666666" d="M626.9,749.1c0,2.1-1.2,3.4-4,4l-3,0.6c0.2,1.3,1.1,1.9,2.4,1.9c1.7,0,2.8-1.3,2.8-1.3s0.9,0.5,0.9,1.4
						c0,1.7-2.6,3.6-5.7,3.6c-3.1,0-5.2-2-5.2-5.3c0-3.8,2.7-9.1,7.6-9.1C625.2,745.1,626.9,746.7,626.9,749.1L626.9,749.1z
						 M621.8,751.1c0.6-0.2,0.8-0.7,0.8-1.3c0-0.6-0.2-1.4-0.9-1.4c-1.2,0-1.7,1.9-1.9,3.4L621.8,751.1z"/>
				</g>
				<g>
					<path fill="#666666" d="M637,754.3c0,0,1,1,1,2.5c0,2.1-1.8,2.7-3.3,2.7c-2,0-3.4-0.9-4.9-1.4c-0.4,0.5-0.8,1-1.2,1.4
						c0,0-2.2-0.1-2.2-1.6c0-1.8,3.1-5,6.4-8.5c-0.4-0.1-0.7-0.1-1.1-0.1c-1.9,0-2.6,0.9-2.6,0.9s-1-1.1-0.9-2.5
						c0.1-2,2-2.5,3.5-2.5c1.6,0,2.7,0.6,3.9,1.1l0.9-1.1c0,0,2.2,0.1,2.2,1.6c0,1.8-3,4.9-6.2,8.3c0.7,0.2,1.3,0.3,1.9,0.3
						C636.2,755.3,637,754.3,637,754.3L637,754.3z"/>
				</g>
				<g>
					<path fill="#666666" d="M651.3,758.3c-0.8,4.8-4.1,7.3-8.3,7.3c-2.7,0-4.7-1.4-4.7-3c0-1.1,0.9-1.6,0.9-1.6s0.9,0.8,2.7,0.8
						c1.7,0,4-0.7,4.4-3.3l0.3-2c-1.1,1.6-2.6,3-4.5,3c-2.1,0-3.1-1.7-2.5-5.3l0.6-3.8c0.4-2.3,0.5-4.3,0.5-4.3c1.5-0.3,3.5-1,4.2-1
						c0.5,0,1,0.5,1,0.5l-0.8,4.8l-0.7,4.4c-0.1,0.4,0,0.6,0.4,0.6c1.8,0,2.8-5.1,2.8-5.1c0.4-2.3,0.5-4.3,0.5-4.3
						c1.5-0.3,3.5-1,4.2-1c0.5,0,1,0.5,1,0.5l-0.8,4.8L651.3,758.3z"/>
				</g>
			</g>
			<g>
				<path fill="#666666" d="M446.6,745.9h4.8c1.1,0,1.9,0.1,2.5,0.2c0.8,0.2,1.4,0.6,1.9,1.2c0.5,0.6,0.9,1.3,1.2,2.1
					c0.3,0.8,0.4,1.8,0.4,3c0,1.1-0.1,2-0.4,2.7c-0.3,0.9-0.8,1.7-1.4,2.3c-0.5,0.4-1.1,0.8-1.8,1c-0.6,0.2-1.3,0.3-2.3,0.3h-4.9
					V745.9z M449.2,748.1v8.5h1.9c0.7,0,1.3,0,1.6-0.1c0.4-0.1,0.8-0.3,1.1-0.5c0.3-0.3,0.5-0.7,0.7-1.2c0.2-0.6,0.3-1.4,0.3-2.4
					c0-1-0.1-1.8-0.3-2.3s-0.4-0.9-0.7-1.2c-0.3-0.3-0.7-0.5-1.2-0.6c-0.4-0.1-1.1-0.1-2.1-0.1H449.2z"/>
				<path fill="#666666" d="M464.6,755.8l2.5,0.4c-0.3,0.9-0.8,1.6-1.5,2.1c-0.7,0.5-1.5,0.7-2.6,0.7c-1.6,0-2.8-0.5-3.6-1.6
					c-0.6-0.8-0.9-1.9-0.9-3.2c0-1.5,0.4-2.8,1.2-3.6c0.8-0.9,1.8-1.3,3.1-1.3c1.4,0,2.5,0.5,3.3,1.4c0.8,0.9,1.2,2.3,1.2,4.2H461
					c0,0.7,0.2,1.3,0.6,1.7c0.4,0.4,0.9,0.6,1.4,0.6c0.4,0,0.7-0.1,1-0.3C464.3,756.6,464.5,756.3,464.6,755.8z M464.7,753.3
					c0-0.7-0.2-1.3-0.6-1.6c-0.4-0.4-0.8-0.6-1.3-0.6c-0.5,0-1,0.2-1.3,0.6c-0.4,0.4-0.5,0.9-0.5,1.6H464.7z"/>
				<path fill="#666666" d="M468,756.1l2.5-0.4c0.1,0.5,0.3,0.8,0.6,1.1c0.3,0.2,0.8,0.4,1.4,0.4c0.6,0,1.1-0.1,1.4-0.4
					c0.2-0.2,0.3-0.4,0.3-0.7c0-0.2-0.1-0.3-0.2-0.5c-0.1-0.1-0.4-0.2-0.8-0.3c-2-0.4-3.3-0.8-3.8-1.2c-0.7-0.5-1.1-1.2-1.1-2.1
					c0-0.8,0.3-1.5,1-2c0.6-0.6,1.6-0.8,3-0.8c1.3,0,2.2,0.2,2.8,0.6c0.6,0.4,1,1,1.3,1.8l-2.3,0.4c-0.1-0.4-0.3-0.6-0.6-0.8
					c-0.3-0.2-0.7-0.3-1.2-0.3c-0.7,0-1.1,0.1-1.4,0.3c-0.2,0.1-0.3,0.3-0.3,0.5c0,0.2,0.1,0.3,0.2,0.4c0.2,0.2,1,0.4,2.3,0.7
					c1.3,0.3,2.2,0.7,2.8,1.1c0.5,0.4,0.8,1.1,0.8,1.8c0,0.9-0.4,1.6-1.1,2.2c-0.7,0.6-1.8,0.9-3.2,0.9c-1.3,0-2.3-0.3-3-0.8
					C468.7,757.7,468.2,757,468,756.1z"/>
				<path fill="#666666" d="M478.5,748.2v-2.3h2.5v2.3H478.5z M478.5,758.8v-9.3h2.5v9.3H478.5z"/>
				<path fill="#666666" d="M482.9,759.4l2.8,0.3c0,0.3,0.2,0.6,0.3,0.7c0.2,0.2,0.6,0.3,1.1,0.3c0.6,0,1.1-0.1,1.5-0.3
					c0.2-0.1,0.4-0.3,0.5-0.6c0.1-0.2,0.1-0.6,0.1-1.1v-1.4c-0.7,1-1.7,1.5-2.8,1.5c-1.3,0-2.2-0.5-3-1.6c-0.6-0.8-0.9-1.9-0.9-3.1
					c0-1.6,0.4-2.8,1.1-3.6c0.8-0.8,1.7-1.2,2.8-1.2c1.2,0,2.1,0.5,2.9,1.5v-1.3h2.3v8.4c0,1.1-0.1,1.9-0.3,2.5
					c-0.2,0.5-0.4,1-0.8,1.3c-0.3,0.3-0.8,0.6-1.3,0.7c-0.5,0.2-1.2,0.3-2.1,0.3c-1.6,0-2.7-0.3-3.4-0.8c-0.7-0.5-1-1.2-1-2.1
					C482.9,759.6,482.9,759.5,482.9,759.4z M485.1,753.9c0,1,0.2,1.7,0.6,2.2c0.4,0.5,0.9,0.7,1.4,0.7c0.6,0,1.1-0.2,1.5-0.7
					c0.4-0.5,0.6-1.2,0.6-2.1c0-1-0.2-1.7-0.6-2.2c-0.4-0.5-0.9-0.7-1.5-0.7c-0.6,0-1.1,0.2-1.5,0.7
					C485.3,752.3,485.1,753,485.1,753.9z"/>
				<path fill="#666666" d="M502.2,758.8h-2.5V754c0-1-0.1-1.7-0.2-2c-0.1-0.3-0.3-0.5-0.5-0.7c-0.2-0.2-0.5-0.2-0.9-0.2
					c-0.4,0-0.8,0.1-1.2,0.4c-0.3,0.2-0.6,0.5-0.7,0.9c-0.1,0.4-0.2,1.1-0.2,2.1v4.2h-2.5v-9.3h2.3v1.4c0.8-1.1,1.8-1.6,3.1-1.6
					c0.5,0,1,0.1,1.5,0.3c0.5,0.2,0.8,0.4,1,0.8c0.2,0.3,0.4,0.7,0.5,1c0.1,0.4,0.1,0.9,0.1,1.7V758.8z"/>
				<path fill="#666666" d="M509.8,755.8l2.5,0.4c-0.3,0.9-0.8,1.6-1.5,2.1c-0.7,0.5-1.5,0.7-2.6,0.7c-1.6,0-2.8-0.5-3.6-1.6
					c-0.6-0.8-0.9-1.9-0.9-3.2c0-1.5,0.4-2.8,1.2-3.6c0.8-0.9,1.8-1.3,3.1-1.3c1.4,0,2.5,0.5,3.3,1.4c0.8,0.9,1.2,2.3,1.2,4.2h-6.2
					c0,0.7,0.2,1.3,0.6,1.7c0.4,0.4,0.9,0.6,1.4,0.6c0.4,0,0.7-0.1,1-0.3C509.5,756.6,509.7,756.3,509.8,755.8z M509.9,753.3
					c0-0.7-0.2-1.3-0.6-1.6c-0.4-0.4-0.8-0.6-1.3-0.6c-0.5,0-1,0.2-1.3,0.6c-0.4,0.4-0.5,0.9-0.5,1.6H509.9z"/>
				<path fill="#666666" d="M522.6,758.8h-2.3v-1.4c-0.4,0.5-0.8,0.9-1.3,1.2c-0.5,0.3-1,0.4-1.6,0.4c-1.1,0-2-0.4-2.8-1.3
					c-0.8-0.9-1.1-2.1-1.1-3.6c0-1.6,0.4-2.8,1.1-3.6c0.7-0.8,1.7-1.2,2.8-1.2c1,0,1.9,0.4,2.7,1.3v-4.6h2.5V758.8z M516,753.9
					c0,1,0.1,1.7,0.4,2.2c0.4,0.6,1,1,1.7,1c0.6,0,1.1-0.2,1.5-0.7c0.4-0.5,0.6-1.2,0.6-2.2c0-1.1-0.2-1.8-0.6-2.3
					c-0.4-0.5-0.9-0.7-1.5-0.7c-0.6,0-1.1,0.2-1.5,0.7C516.2,752.3,516,753,516,753.9z"/>
				<path fill="#666666" d="M529.2,758.8v-12.9h2.5v4.6c0.8-0.9,1.7-1.3,2.7-1.3c1.1,0,2.1,0.4,2.8,1.2c0.7,0.8,1.1,2,1.1,3.5
					c0,1.6-0.4,2.8-1.1,3.7c-0.8,0.9-1.7,1.3-2.8,1.3c-0.5,0-1.1-0.1-1.6-0.4c-0.5-0.3-1-0.7-1.3-1.2v1.4H529.2z M531.7,753.9
					c0,1,0.2,1.7,0.5,2.1c0.4,0.7,1,1,1.7,1c0.5,0,1-0.2,1.4-0.7c0.4-0.5,0.6-1.2,0.6-2.2c0-1.1-0.2-1.8-0.6-2.3
					c-0.4-0.5-0.9-0.7-1.5-0.7c-0.6,0-1.1,0.2-1.5,0.7C531.9,752.3,531.7,753,531.7,753.9z"/>
				<path fill="#666666" d="M538.8,749.4h2.6l2.2,6.6l2.2-6.6h2.6l-3.3,9l-0.6,1.6c-0.2,0.5-0.4,1-0.6,1.2c-0.2,0.3-0.4,0.5-0.7,0.7
					c-0.3,0.2-0.6,0.3-0.9,0.4c-0.4,0.1-0.8,0.1-1.3,0.1c-0.5,0-0.9,0-1.4-0.1l-0.2-1.9c0.4,0.1,0.7,0.1,1,0.1c0.6,0,1-0.2,1.3-0.5
					c0.3-0.3,0.5-0.8,0.6-1.3L538.8,749.4z"/>
			</g>
		</g>
	</g>
</g>
</svg>
